<mxfile host="65bd71144e">
    <diagram id="hOXahTLIqE430J9RqtRj" name="第 1 页">
        <mxGraphModel dx="930" dy="659" grid="1" gridSize="10" guides="1" tooltips="1" connect="1" arrows="1" fold="1" page="1" pageScale="1" pageWidth="827" pageHeight="1169" math="0" shadow="0">
            <root>
                <mxCell id="0"/>
                <mxCell id="1" parent="0"/>
                <mxCell id="366" value="&lt;font style=&quot;font-size: 20px;&quot;&gt;病人&lt;/font&gt;" style="rounded=1;whiteSpace=wrap;html=1;fontFamily=Helvetica;" parent="1" vertex="1">
                    <mxGeometry x="360" y="170" width="120" height="60" as="geometry"/>
                </mxCell>
                <mxCell id="367" value="挂号" style="rhombus;whiteSpace=wrap;html=1;fontFamily=Helvetica;fontSize=20;" parent="1" vertex="1">
                    <mxGeometry x="240" y="70" width="160" height="60" as="geometry"/>
                </mxCell>
                <mxCell id="368" value="预约" style="rhombus;whiteSpace=wrap;html=1;fontFamily=Helvetica;fontSize=20;" parent="1" vertex="1">
                    <mxGeometry x="440" y="70" width="160" height="60" as="geometry"/>
                </mxCell>
                <mxCell id="369" value="缴费" style="rhombus;whiteSpace=wrap;html=1;fontFamily=Helvetica;fontSize=20;" parent="1" vertex="1">
                    <mxGeometry x="520" y="170" width="160" height="60" as="geometry"/>
                </mxCell>
                <mxCell id="370" value="查询" style="rhombus;whiteSpace=wrap;html=1;fontFamily=Helvetica;fontSize=20;" parent="1" vertex="1">
                    <mxGeometry x="340" y="265" width="160" height="60" as="geometry"/>
                </mxCell>
                <mxCell id="371" value="&lt;font style=&quot;font-size: 20px;&quot;&gt;医生&lt;/font&gt;" style="rounded=1;whiteSpace=wrap;html=1;fontFamily=Helvetica;" parent="1" vertex="1">
                    <mxGeometry x="360" y="550" width="120" height="60" as="geometry"/>
                </mxCell>
                <mxCell id="372" value="打卡" style="rhombus;whiteSpace=wrap;html=1;fontFamily=Helvetica;fontSize=20;" parent="1" vertex="1">
                    <mxGeometry x="240" y="450" width="160" height="60" as="geometry"/>
                </mxCell>
                <mxCell id="373" value="诊断" style="rhombus;whiteSpace=wrap;html=1;fontFamily=Helvetica;fontSize=20;" parent="1" vertex="1">
                    <mxGeometry x="340" y="640" width="160" height="60" as="geometry"/>
                </mxCell>
                <mxCell id="374" value="请假" style="rhombus;whiteSpace=wrap;html=1;fontFamily=Helvetica;fontSize=20;" parent="1" vertex="1">
                    <mxGeometry x="440" y="450" width="160" height="60" as="geometry"/>
                </mxCell>
                <mxCell id="375" value="查询" style="rhombus;whiteSpace=wrap;html=1;fontFamily=Helvetica;fontSize=20;" parent="1" vertex="1">
                    <mxGeometry x="160" y="550" width="160" height="60" as="geometry"/>
                </mxCell>
                <mxCell id="376" value="&lt;font style=&quot;font-size: 20px;&quot;&gt;管理&lt;/font&gt;" style="rounded=1;whiteSpace=wrap;html=1;fontFamily=Helvetica;" parent="1" vertex="1">
                    <mxGeometry x="360" y="950" width="120" height="60" as="geometry"/>
                </mxCell>
                <mxCell id="377" value="药房" style="rhombus;whiteSpace=wrap;html=1;fontFamily=Helvetica;fontSize=20;" parent="1" vertex="1">
                    <mxGeometry x="340" y="870" width="160" height="60" as="geometry"/>
                </mxCell>
                <mxCell id="378" value="医生" style="rhombus;whiteSpace=wrap;html=1;fontFamily=Helvetica;fontSize=20;" parent="1" vertex="1">
                    <mxGeometry x="440" y="1040" width="160" height="60" as="geometry"/>
                </mxCell>
                <mxCell id="379" value="病人" style="rhombus;whiteSpace=wrap;html=1;fontFamily=Helvetica;fontSize=20;" parent="1" vertex="1">
                    <mxGeometry x="240" y="1040" width="160" height="60" as="geometry"/>
                </mxCell>
                <mxCell id="386" value="投诉" style="rhombus;whiteSpace=wrap;html=1;fontFamily=Helvetica;fontSize=20;" parent="1" vertex="1">
                    <mxGeometry x="160" y="170" width="160" height="60" as="geometry"/>
                </mxCell>
                <mxCell id="387" value="问诊" style="rhombus;whiteSpace=wrap;html=1;fontFamily=Helvetica;fontSize=20;" parent="1" vertex="1">
                    <mxGeometry x="520" y="550" width="160" height="60" as="geometry"/>
                </mxCell>
                <mxCell id="438" value="事务" style="rhombus;whiteSpace=wrap;html=1;fontFamily=Helvetica;fontSize=20;" parent="1" vertex="1">
                    <mxGeometry x="160" y="950" width="160" height="60" as="geometry"/>
                </mxCell>
                <mxCell id="439" value="医院" style="rhombus;whiteSpace=wrap;html=1;fontFamily=Helvetica;fontSize=20;" parent="1" vertex="1">
                    <mxGeometry x="520" y="950" width="160" height="60" as="geometry"/>
                </mxCell>
                <mxCell id="440" value="" style="endArrow=classic;html=1;fontFamily=Helvetica;entryX=1;entryY=0.5;entryDx=0;entryDy=0;" parent="1" source="368" target="367" edge="1">
                    <mxGeometry width="50" height="50" relative="1" as="geometry">
                        <mxPoint x="440" y="60" as="sourcePoint"/>
                        <mxPoint x="490" y="10" as="targetPoint"/>
                    </mxGeometry>
                </mxCell>
                <mxCell id="441" value="" style="shape=curlyBracket;whiteSpace=wrap;html=1;rounded=1;flipH=1;labelPosition=right;verticalLabelPosition=middle;align=left;verticalAlign=middle;fontFamily=Helvetica;" parent="1" vertex="1">
                    <mxGeometry x="140" y="920" width="20" height="120" as="geometry"/>
                </mxCell>
                <mxCell id="443" value="&lt;font style=&quot;font-size: 20px;&quot;&gt;处理投诉&lt;/font&gt;" style="rounded=1;whiteSpace=wrap;html=1;fontFamily=Helvetica;fontSize=20;" parent="1" vertex="1">
                    <mxGeometry x="30" y="910" width="100" height="40" as="geometry"/>
                </mxCell>
                <mxCell id="444" value="&lt;font style=&quot;font-size: 20px;&quot;&gt;医生考勤&lt;/font&gt;" style="rounded=1;whiteSpace=wrap;html=1;fontFamily=Helvetica;fontSize=20;" parent="1" vertex="1">
                    <mxGeometry x="30" y="960" width="100" height="40" as="geometry"/>
                </mxCell>
                <mxCell id="445" value="&lt;font style=&quot;font-size: 20px;&quot;&gt;医生排班&lt;/font&gt;" style="rounded=1;whiteSpace=wrap;html=1;fontFamily=Helvetica;fontSize=20;" parent="1" vertex="1">
                    <mxGeometry x="30" y="1010" width="100" height="40" as="geometry"/>
                </mxCell>
                <mxCell id="446" value="" style="endArrow=classic;html=1;fontFamily=Helvetica;fontSize=20;exitX=0;exitY=0.5;exitDx=0;exitDy=0;entryX=0.5;entryY=0;entryDx=0;entryDy=0;" parent="1" source="386" target="443" edge="1">
                    <mxGeometry width="50" height="50" relative="1" as="geometry">
                        <mxPoint x="390" y="560" as="sourcePoint"/>
                        <mxPoint x="440" y="510" as="targetPoint"/>
                        <Array as="points">
                            <mxPoint x="80" y="200"/>
                        </Array>
                    </mxGeometry>
                </mxCell>
                <mxCell id="448" value="" style="endArrow=classic;html=1;fontFamily=Helvetica;fontSize=20;exitX=0;exitY=0.5;exitDx=0;exitDy=0;entryX=1;entryY=0.5;entryDx=0;entryDy=0;" parent="1" source="374" target="372" edge="1">
                    <mxGeometry width="50" height="50" relative="1" as="geometry">
                        <mxPoint x="390" y="450" as="sourcePoint"/>
                        <mxPoint x="440" y="400" as="targetPoint"/>
                    </mxGeometry>
                </mxCell>
                <mxCell id="449" value="" style="endArrow=classic;html=1;fontFamily=Helvetica;fontSize=20;exitX=0;exitY=0.5;exitDx=0;exitDy=0;entryX=0;entryY=0.5;entryDx=0;entryDy=0;" parent="1" source="372" target="444" edge="1">
                    <mxGeometry width="50" height="50" relative="1" as="geometry">
                        <mxPoint x="390" y="750" as="sourcePoint"/>
                        <mxPoint x="440" y="700" as="targetPoint"/>
                        <Array as="points">
                            <mxPoint x="10" y="480"/>
                            <mxPoint x="10" y="980"/>
                        </Array>
                    </mxGeometry>
                </mxCell>
                <mxCell id="450" value="" style="rounded=0;whiteSpace=wrap;html=1;fontFamily=Helvetica;fontSize=20;fillColor=none;" parent="1" vertex="1">
                    <mxGeometry x="240" y="70" width="360" height="60" as="geometry"/>
                </mxCell>
                <mxCell id="451" value="" style="rounded=0;whiteSpace=wrap;html=1;fontFamily=Helvetica;fontSize=20;fillColor=none;" parent="1" vertex="1">
                    <mxGeometry x="240" y="450" width="360" height="60" as="geometry"/>
                </mxCell>
                <mxCell id="452" value="" style="endArrow=classic;html=1;fontFamily=Helvetica;fontSize=20;entryX=0;entryY=0.5;entryDx=0;entryDy=0;" parent="1" target="445" edge="1">
                    <mxGeometry width="50" height="50" relative="1" as="geometry">
                        <mxPoint x="10" y="980" as="sourcePoint"/>
                        <mxPoint x="410" y="850" as="targetPoint"/>
                        <Array as="points">
                            <mxPoint x="10" y="1030"/>
                        </Array>
                    </mxGeometry>
                </mxCell>
                <mxCell id="453" value="" style="rounded=0;whiteSpace=wrap;html=1;fontFamily=Helvetica;fontSize=20;fillColor=none;" parent="1" vertex="1">
                    <mxGeometry x="240" y="1040" width="360" height="60" as="geometry"/>
                </mxCell>
                <mxCell id="460" value="" style="endArrow=classic;html=1;fontFamily=Helvetica;fontSize=20;exitX=0.5;exitY=1;exitDx=0;exitDy=0;" parent="1" source="387" edge="1">
                    <mxGeometry width="50" height="50" relative="1" as="geometry">
                        <mxPoint x="360" y="760" as="sourcePoint"/>
                        <mxPoint x="600" y="640" as="targetPoint"/>
                    </mxGeometry>
                </mxCell>
                <mxCell id="461" value="对话" style="ellipse;whiteSpace=wrap;html=1;fontFamily=Helvetica;fontSize=20;" parent="1" vertex="1">
                    <mxGeometry x="550" y="640" width="100" height="60" as="geometry"/>
                </mxCell>
                <mxCell id="462" value="" style="endArrow=classic;html=1;fontFamily=Helvetica;fontSize=20;exitX=1;exitY=0.5;exitDx=0;exitDy=0;entryX=0;entryY=0.5;entryDx=0;entryDy=0;" parent="1" source="461" target="463" edge="1">
                    <mxGeometry width="50" height="50" relative="1" as="geometry">
                        <mxPoint x="700" y="680" as="sourcePoint"/>
                        <mxPoint x="690" y="670" as="targetPoint"/>
                    </mxGeometry>
                </mxCell>
                <mxCell id="463" value="检测" style="ellipse;whiteSpace=wrap;html=1;fontFamily=Helvetica;fontSize=20;" parent="1" vertex="1">
                    <mxGeometry x="690" y="640" width="100" height="60" as="geometry"/>
                </mxCell>
                <mxCell id="464" value="开方" style="ellipse;whiteSpace=wrap;html=1;fontFamily=Helvetica;fontSize=20;" parent="1" vertex="1">
                    <mxGeometry x="690" y="730" width="100" height="60" as="geometry"/>
                </mxCell>
                <mxCell id="466" value="" style="endArrow=classic;html=1;fontFamily=Helvetica;fontSize=20;exitX=0.5;exitY=1;exitDx=0;exitDy=0;" parent="1" edge="1">
                    <mxGeometry width="50" height="50" relative="1" as="geometry">
                        <mxPoint x="739.5" y="700" as="sourcePoint"/>
                        <mxPoint x="739.5" y="730" as="targetPoint"/>
                    </mxGeometry>
                </mxCell>
                <mxCell id="467" value="" style="endArrow=classic;html=1;fontFamily=Helvetica;fontSize=20;exitX=0;exitY=0.5;exitDx=0;exitDy=0;entryX=1;entryY=0.5;entryDx=0;entryDy=0;" parent="1" source="464" target="468" edge="1">
                    <mxGeometry width="50" height="50" relative="1" as="geometry">
                        <mxPoint x="650" y="750" as="sourcePoint"/>
                        <mxPoint x="650" y="760" as="targetPoint"/>
                    </mxGeometry>
                </mxCell>
                <mxCell id="468" value="填写病例" style="ellipse;whiteSpace=wrap;html=1;fontFamily=Helvetica;fontSize=20;" parent="1" vertex="1">
                    <mxGeometry x="550" y="730" width="100" height="60" as="geometry"/>
                </mxCell>
                <mxCell id="469" value="" style="rounded=0;whiteSpace=wrap;html=1;fontFamily=Helvetica;fontSize=20;fillColor=none;" parent="1" vertex="1">
                    <mxGeometry x="520" y="550" width="270" height="240" as="geometry"/>
                </mxCell>
                <mxCell id="471" value="" style="shape=curlyBracket;whiteSpace=wrap;html=1;rounded=1;labelPosition=left;verticalLabelPosition=middle;align=right;verticalAlign=middle;fontFamily=Helvetica;fontSize=20;" parent="1" vertex="1">
                    <mxGeometry x="680" y="140" width="20" height="120" as="geometry"/>
                </mxCell>
                <mxCell id="472" value="&lt;font style=&quot;font-size: 20px;&quot;&gt;挂号缴费&lt;/font&gt;" style="rounded=1;whiteSpace=wrap;html=1;fontFamily=Helvetica;fontSize=20;" parent="1" vertex="1">
                    <mxGeometry x="700" y="130" width="100" height="40" as="geometry"/>
                </mxCell>
                <mxCell id="473" value="&lt;font style=&quot;font-size: 20px;&quot;&gt;检测缴费&lt;/font&gt;" style="rounded=1;whiteSpace=wrap;html=1;fontFamily=Helvetica;fontSize=20;" parent="1" vertex="1">
                    <mxGeometry x="700" y="180" width="100" height="40" as="geometry"/>
                </mxCell>
                <mxCell id="474" value="&lt;font style=&quot;font-size: 20px;&quot;&gt;药品缴费&lt;/font&gt;" style="rounded=1;whiteSpace=wrap;html=1;fontFamily=Helvetica;fontSize=20;" parent="1" vertex="1">
                    <mxGeometry x="700" y="230" width="100" height="40" as="geometry"/>
                </mxCell>
                <mxCell id="475" value="" style="endArrow=classic;html=1;fontFamily=Helvetica;fontSize=20;exitX=0.225;exitY=0.022;exitDx=0;exitDy=0;exitPerimeter=0;entryX=0.5;entryY=0;entryDx=0;entryDy=0;" parent="1" source="450" target="472" edge="1">
                    <mxGeometry width="50" height="50" relative="1" as="geometry">
                        <mxPoint x="360" y="240" as="sourcePoint"/>
                        <mxPoint x="410" y="190" as="targetPoint"/>
                        <Array as="points">
                            <mxPoint x="321" y="40"/>
                            <mxPoint x="750" y="40"/>
                        </Array>
                    </mxGeometry>
                </mxCell>
                <mxCell id="476" value="" style="endArrow=classic;html=1;fontFamily=Helvetica;fontSize=20;exitX=1;exitY=0.5;exitDx=0;exitDy=0;entryX=1;entryY=0.5;entryDx=0;entryDy=0;" parent="1" source="469" target="473" edge="1">
                    <mxGeometry width="50" height="50" relative="1" as="geometry">
                        <mxPoint x="360" y="560" as="sourcePoint"/>
                        <mxPoint x="410" y="510" as="targetPoint"/>
                        <Array as="points">
                            <mxPoint x="810" y="670"/>
                            <mxPoint x="810" y="220"/>
                        </Array>
                    </mxGeometry>
                </mxCell>
                <mxCell id="477" value="" style="endArrow=classic;html=1;fontFamily=Helvetica;fontSize=20;exitX=1.004;exitY=0.878;exitDx=0;exitDy=0;exitPerimeter=0;entryX=1;entryY=0.5;entryDx=0;entryDy=0;" parent="1" source="469" target="474" edge="1">
                    <mxGeometry width="50" height="50" relative="1" as="geometry">
                        <mxPoint x="420" y="460" as="sourcePoint"/>
                        <mxPoint x="470" y="410" as="targetPoint"/>
                        <Array as="points">
                            <mxPoint x="810" y="760"/>
                            <mxPoint x="810" y="270"/>
                        </Array>
                    </mxGeometry>
                </mxCell>
                <mxCell id="478" value="" style="shape=curlyBracket;whiteSpace=wrap;html=1;rounded=1;flipH=1;labelPosition=right;verticalLabelPosition=middle;align=left;verticalAlign=middle;fontFamily=Helvetica;fontSize=20;rotation=90;" parent="1" vertex="1">
                    <mxGeometry x="410" y="660" width="20" height="400" as="geometry"/>
                </mxCell>
                <mxCell id="479" value="&lt;font style=&quot;font-size: 20px;&quot;&gt;新药入库&lt;/font&gt;" style="rounded=1;whiteSpace=wrap;html=1;fontFamily=Helvetica;fontSize=20;" parent="1" vertex="1">
                    <mxGeometry x="220" y="810" width="100" height="40" as="geometry"/>
                </mxCell>
                <mxCell id="480" value="&lt;font style=&quot;font-size: 20px;&quot;&gt;旧药下架&lt;/font&gt;" style="rounded=1;whiteSpace=wrap;html=1;fontFamily=Helvetica;fontSize=20;" parent="1" vertex="1">
                    <mxGeometry x="320" y="810" width="100" height="40" as="geometry"/>
                </mxCell>
                <mxCell id="481" value="&lt;font style=&quot;font-size: 20px;&quot;&gt;信息更新&lt;/font&gt;" style="rounded=1;whiteSpace=wrap;html=1;fontFamily=Helvetica;fontSize=20;" parent="1" vertex="1">
                    <mxGeometry x="520" y="810" width="100" height="40" as="geometry"/>
                </mxCell>
                <mxCell id="482" value="&lt;font style=&quot;font-size: 20px;&quot;&gt;药品查询&lt;/font&gt;" style="rounded=1;whiteSpace=wrap;html=1;fontFamily=Helvetica;fontSize=20;" parent="1" vertex="1">
                    <mxGeometry x="420" y="810" width="100" height="40" as="geometry"/>
                </mxCell>
                <mxCell id="483" value="" style="shape=curlyBracket;whiteSpace=wrap;html=1;rounded=1;labelPosition=left;verticalLabelPosition=middle;align=right;verticalAlign=middle;fontFamily=Helvetica;fontSize=20;" parent="1" vertex="1">
                    <mxGeometry x="680" y="920" width="20" height="120" as="geometry"/>
                </mxCell>
                <mxCell id="487" value="账单" style="ellipse;whiteSpace=wrap;html=1;fontFamily=Helvetica;fontSize=20;" parent="1" vertex="1">
                    <mxGeometry x="710" y="870" width="80" height="40" as="geometry"/>
                </mxCell>
                <mxCell id="489" value="账户" style="ellipse;whiteSpace=wrap;html=1;fontFamily=Helvetica;fontSize=20;" parent="1" vertex="1">
                    <mxGeometry x="710" y="930" width="80" height="40" as="geometry"/>
                </mxCell>
                <mxCell id="490" value="" style="endArrow=none;html=1;fontFamily=Helvetica;fontSize=20;entryX=0;entryY=0.5;entryDx=0;entryDy=0;exitX=0;exitY=0.5;exitDx=0;exitDy=0;" parent="1" source="489" target="487" edge="1">
                    <mxGeometry width="50" height="50" relative="1" as="geometry">
                        <mxPoint x="430" y="1000" as="sourcePoint"/>
                        <mxPoint x="480" y="950" as="targetPoint"/>
                    </mxGeometry>
                </mxCell>
                <mxCell id="491" value="&lt;font style=&quot;font-size: 20px;&quot;&gt;医院信息&lt;/font&gt;" style="rounded=1;whiteSpace=wrap;html=1;fontFamily=Helvetica;fontSize=20;" parent="1" vertex="1">
                    <mxGeometry x="700" y="990" width="100" height="40" as="geometry"/>
                </mxCell>
                <mxCell id="492" value="&lt;font style=&quot;font-size: 20px;&quot;&gt;人事管理&lt;/font&gt;" style="rounded=1;whiteSpace=wrap;html=1;fontFamily=Helvetica;fontSize=20;" parent="1" vertex="1">
                    <mxGeometry x="700" y="1050" width="100" height="40" as="geometry"/>
                </mxCell>
                <mxCell id="493" value="" style="endArrow=none;html=1;fontFamily=Helvetica;fontSize=20;entryX=0;entryY=0.5;entryDx=0;entryDy=0;exitX=0;exitY=0.5;exitDx=0;exitDy=0;" parent="1" source="492" target="491" edge="1">
                    <mxGeometry width="50" height="50" relative="1" as="geometry">
                        <mxPoint x="430" y="1100" as="sourcePoint"/>
                        <mxPoint x="480" y="1050" as="targetPoint"/>
                    </mxGeometry>
                </mxCell>
                <mxCell id="494" value="" style="shape=curlyBracket;whiteSpace=wrap;html=1;rounded=1;labelPosition=left;verticalLabelPosition=middle;align=right;verticalAlign=middle;fontFamily=Helvetica;fontSize=20;rotation=90;" parent="1" vertex="1">
                    <mxGeometry x="410" y="120" width="20" height="430" as="geometry"/>
                </mxCell>
                <mxCell id="495" value="&lt;font style=&quot;font-size: 20px;&quot;&gt;挂号记录&lt;/font&gt;" style="rounded=1;whiteSpace=wrap;html=1;fontFamily=Helvetica;fontSize=20;" parent="1" vertex="1">
                    <mxGeometry x="205" y="345" width="100" height="40" as="geometry"/>
                </mxCell>
                <mxCell id="496" value="&lt;font style=&quot;font-size: 20px;&quot;&gt;预约记录&lt;/font&gt;" style="rounded=1;whiteSpace=wrap;html=1;fontFamily=Helvetica;fontSize=20;" parent="1" vertex="1">
                    <mxGeometry x="315" y="345" width="100" height="40" as="geometry"/>
                </mxCell>
                <mxCell id="497" value="&lt;font style=&quot;font-size: 20px;&quot;&gt;投诉记录&lt;/font&gt;" style="rounded=1;whiteSpace=wrap;html=1;fontFamily=Helvetica;fontSize=20;" parent="1" vertex="1">
                    <mxGeometry x="425" y="345" width="100" height="40" as="geometry"/>
                </mxCell>
                <mxCell id="498" value="&lt;font style=&quot;font-size: 20px;&quot;&gt;医保余额&lt;/font&gt;" style="rounded=1;whiteSpace=wrap;html=1;fontFamily=Helvetica;fontSize=20;" parent="1" vertex="1">
                    <mxGeometry x="535" y="345" width="100" height="40" as="geometry"/>
                </mxCell>
                <mxCell id="499" value="&lt;font style=&quot;font-size: 20px;&quot;&gt;检测报告&lt;/font&gt;" style="rounded=1;whiteSpace=wrap;html=1;fontFamily=Helvetica;fontSize=20;" parent="1" vertex="1">
                    <mxGeometry x="205" y="400" width="100" height="40" as="geometry"/>
                </mxCell>
                <mxCell id="500" value="&lt;font style=&quot;font-size: 20px;&quot;&gt;诊断报告&lt;/font&gt;" style="rounded=1;whiteSpace=wrap;html=1;fontFamily=Helvetica;fontSize=20;" parent="1" vertex="1">
                    <mxGeometry x="315" y="400" width="100" height="40" as="geometry"/>
                </mxCell>
                <mxCell id="501" value="&lt;font style=&quot;font-size: 20px;&quot;&gt;医生排班&lt;/font&gt;" style="rounded=1;whiteSpace=wrap;html=1;fontFamily=Helvetica;fontSize=20;" parent="1" vertex="1">
                    <mxGeometry x="425" y="400" width="100" height="40" as="geometry"/>
                </mxCell>
                <mxCell id="502" value="&lt;font style=&quot;font-size: 20px;&quot;&gt;缴费账单&lt;/font&gt;" style="rounded=1;whiteSpace=wrap;html=1;fontFamily=Helvetica;fontSize=20;" parent="1" vertex="1">
                    <mxGeometry x="535" y="400" width="100" height="40" as="geometry"/>
                </mxCell>
                <mxCell id="503" value="" style="shape=flexArrow;endArrow=classic;html=1;fontFamily=Helvetica;fontSize=20;exitX=0.5;exitY=1;exitDx=0;exitDy=0;entryX=0.5;entryY=0;entryDx=0;entryDy=0;" parent="1" source="366" target="370" edge="1">
                    <mxGeometry width="50" height="50" relative="1" as="geometry">
                        <mxPoint x="430" y="460" as="sourcePoint"/>
                        <mxPoint x="480" y="410" as="targetPoint"/>
                    </mxGeometry>
                </mxCell>
                <mxCell id="504" value="" style="rounded=0;whiteSpace=wrap;html=1;fontFamily=Helvetica;fontSize=20;fillColor=none;" parent="1" vertex="1">
                    <mxGeometry y="30" width="820" height="410" as="geometry"/>
                </mxCell>
                <mxCell id="505" value="病人端" style="text;html=1;strokeColor=none;fillColor=none;align=center;verticalAlign=middle;whiteSpace=wrap;rounded=0;fontFamily=Helvetica;fontSize=20;" parent="1" vertex="1">
                    <mxGeometry x="10" y="30" width="70" height="30" as="geometry"/>
                </mxCell>
                <mxCell id="506" value="" style="shape=curlyBracket;whiteSpace=wrap;html=1;rounded=1;flipH=1;labelPosition=right;verticalLabelPosition=middle;align=left;verticalAlign=middle;fontFamily=Helvetica;fontSize=20;rotation=-90;" parent="1" vertex="1">
                    <mxGeometry x="230" y="560" width="20" height="120" as="geometry"/>
                </mxCell>
                <mxCell id="507" value="&lt;font style=&quot;font-size: 20px;&quot;&gt;打卡记录&lt;/font&gt;" style="rounded=1;whiteSpace=wrap;html=1;fontFamily=Helvetica;fontSize=20;" parent="1" vertex="1">
                    <mxGeometry x="130" y="630" width="100" height="40" as="geometry"/>
                </mxCell>
                <mxCell id="508" value="&lt;font style=&quot;font-size: 20px;&quot;&gt;请假记录&lt;/font&gt;" style="rounded=1;whiteSpace=wrap;html=1;fontFamily=Helvetica;fontSize=20;" parent="1" vertex="1">
                    <mxGeometry x="240" y="630" width="100" height="40" as="geometry"/>
                </mxCell>
                <mxCell id="509" value="&lt;font style=&quot;font-size: 20px;&quot;&gt;问诊记录&lt;/font&gt;" style="rounded=1;whiteSpace=wrap;html=1;fontFamily=Helvetica;fontSize=20;" parent="1" vertex="1">
                    <mxGeometry x="130" y="680" width="100" height="40" as="geometry"/>
                </mxCell>
                <mxCell id="510" value="&lt;font style=&quot;font-size: 20px;&quot;&gt;排班时段&lt;/font&gt;" style="rounded=1;whiteSpace=wrap;html=1;fontFamily=Helvetica;fontSize=20;" parent="1" vertex="1">
                    <mxGeometry x="240" y="680" width="100" height="40" as="geometry"/>
                </mxCell>
                <mxCell id="511" value="&lt;font style=&quot;font-size: 20px;&quot;&gt;患者查询&lt;/font&gt;" style="rounded=1;whiteSpace=wrap;html=1;fontFamily=Helvetica;fontSize=20;" parent="1" vertex="1">
                    <mxGeometry x="130" y="730" width="100" height="40" as="geometry"/>
                </mxCell>
                <mxCell id="513" value="&lt;font style=&quot;font-size: 20px;&quot;&gt;药品查询&lt;/font&gt;" style="rounded=1;whiteSpace=wrap;html=1;fontFamily=Helvetica;fontSize=20;" parent="1" vertex="1">
                    <mxGeometry x="240" y="730" width="100" height="40" as="geometry"/>
                </mxCell>
                <mxCell id="514" value="" style="rounded=0;whiteSpace=wrap;html=1;fontFamily=Helvetica;fontSize=20;fillColor=none;" parent="1" vertex="1">
                    <mxGeometry y="450" width="820" height="350" as="geometry"/>
                </mxCell>
                <mxCell id="518" value="医生端" style="text;html=1;strokeColor=none;fillColor=none;align=center;verticalAlign=middle;whiteSpace=wrap;rounded=0;fontFamily=Helvetica;fontSize=20;" parent="1" vertex="1">
                    <mxGeometry x="10" y="450" width="70" height="30" as="geometry"/>
                </mxCell>
                <mxCell id="519" value="对医生\病人的所有信息进行管理(增删改查)" style="text;html=1;strokeColor=none;fillColor=none;align=center;verticalAlign=middle;whiteSpace=wrap;rounded=0;fontFamily=Helvetica;fontSize=20;" parent="1" vertex="1">
                    <mxGeometry x="225" y="1110" width="390" height="30" as="geometry"/>
                </mxCell>
                <mxCell id="520" value="" style="rounded=0;whiteSpace=wrap;html=1;fontFamily=Helvetica;fontSize=20;fillColor=none;" parent="1" vertex="1">
                    <mxGeometry y="810" width="820" height="330" as="geometry"/>
                </mxCell>
                <mxCell id="522" value="管理端" style="text;html=1;strokeColor=none;fillColor=none;align=center;verticalAlign=middle;whiteSpace=wrap;rounded=0;fontFamily=Helvetica;fontSize=20;" parent="1" vertex="1">
                    <mxGeometry x="10" y="810" width="70" height="30" as="geometry"/>
                </mxCell>
                <mxCell id="523" value="" style="endArrow=none;html=1;fontFamily=Helvetica;fontSize=20;exitX=1;exitY=0.5;exitDx=0;exitDy=0;entryX=0;entryY=0.5;entryDx=0;entryDy=0;" parent="1" source="379" target="378" edge="1">
                    <mxGeometry width="50" height="50" relative="1" as="geometry">
                        <mxPoint x="420" y="1140" as="sourcePoint"/>
                        <mxPoint x="470" y="1090" as="targetPoint"/>
                    </mxGeometry>
                </mxCell>
                <mxCell id="525" value="" style="endArrow=classic;html=1;fontFamily=Helvetica;fontSize=20;entryX=1;entryY=0.5;entryDx=0;entryDy=0;" parent="1" target="378" edge="1">
                    <mxGeometry width="50" height="50" relative="1" as="geometry">
                        <mxPoint x="700" y="1070" as="sourcePoint"/>
                        <mxPoint x="730" y="1110" as="targetPoint"/>
                    </mxGeometry>
                </mxCell>
                <mxCell id="527" value="" style="shape=flexArrow;endArrow=classic;html=1;exitX=0;exitY=0.5;exitDx=0;exitDy=0;entryX=1;entryY=0.5;entryDx=0;entryDy=0;" parent="1" source="371" target="375" edge="1">
                    <mxGeometry width="50" height="50" relative="1" as="geometry">
                        <mxPoint x="390" y="660" as="sourcePoint"/>
                        <mxPoint x="440" y="610" as="targetPoint"/>
                    </mxGeometry>
                </mxCell>
                <mxCell id="528" value="" style="endArrow=classic;html=1;exitX=0;exitY=0.5;exitDx=0;exitDy=0;entryX=1;entryY=0.5;entryDx=0;entryDy=0;" edge="1" parent="1" source="468" target="373">
                    <mxGeometry width="50" height="50" relative="1" as="geometry">
                        <mxPoint x="490" y="740" as="sourcePoint"/>
                        <mxPoint x="440" y="510" as="targetPoint"/>
                        <Array as="points">
                            <mxPoint x="530" y="760"/>
                            <mxPoint x="530" y="670"/>
                        </Array>
                    </mxGeometry>
                </mxCell>
            </root>
        </mxGraphModel>
    </diagram>
</mxfile>